<?xml version="1.0" encoding="utf-8"?>
<!-- Generator: Adobe Illustrator 22.1.0, SVG Export Plug-In . SVG Version: 6.00 Build 0)  -->
<svg version="1.1" id="Layer_1" xmlns="http://www.w3.org/2000/svg" xmlns:xlink="http://www.w3.org/1999/xlink" x="0px" y="0px"
	 viewBox="0 0 499.9 70" style="enable-background:new 0 0 499.9 70;" xml:space="preserve">
<style type="text/css">
	.st0{fill:#004187;}
</style>
<g>
	<path class="st0" d="M320.4,0h-46.7h-20.5c-1.5,0-2.8,1.3-2.8,2.8v20.5V70h23.3V46.7h20.5c1.5,0,2.8-1.3,2.8-2.8V23.3h20.6
		c1.5,0,2.8-1.3,2.8-2.8V0z"/>
	<path class="st0" d="M499.9,70h-73.5l34.2-68.5c1-2.1,4-2.1,5,0L499.9,70z"/>
	<circle class="st0" cx="109.3" cy="35" r="35"/>
	<path class="st0" d="M183.5,70c19.3,0,35-15.6,35-34.9c0.1-19.3-16-35.2-35.3-35.2l-32,0c-1.5,0-2.8,1.3-2.8,2.8V70H183.5z"/>
	<path class="st0" d="M67.2,38.9H35l0,0l0,0c-2.1,0-3.9-1.7-3.9-3.9l0,0c0-2.1,1.7-3.9,3.9-3.9l0,0h18.9v0c0.2,0,0.4,0,0.5,0
		c8.6,0,15.6-7,15.6-15.6S63.1,0,54.5,0c-0.2,0-0.4,0-0.5,0v0H35C15.7,0,0,15.7,0,35c0,19.3,15.7,35,35,35h35V41.7
		C70,40.2,68.8,38.9,67.2,38.9z"/>
	<path class="st0" d="M419.4,38.9h-32.2l0,0l0,0c-2.1,0-3.9-1.7-3.9-3.9l0,0c0-2.1,1.7-3.9,3.9-3.9l0,0h18.9v0c0.2,0,0.4,0,0.5,0
		c8.6,0,15.6-7,15.6-15.6S415.2,0,406.6,0c-0.2,0-0.4,0-0.5,0v0h-18.9c-19.3,0-35,15.7-35,35c0,19.3,15.7,35,35,35h35V41.7
		C422.2,40.2,420.9,38.9,419.4,38.9z"/>
	<path class="st0" d="M222.8,70V2.8c0-1.5,1.3-2.8,2.8-2.8h20.5v70L222.8,70z"/>
	<path class="st0" d="M324.6,70V2.8c0-1.5,1.3-2.8,2.8-2.8h20.5v70L324.6,70z"/>
	<path class="st0" d="M437.6,16.1c-1.1,0-2.2-0.2-3.2-0.6c-1-0.4-1.9-1-2.6-1.7c-0.7-0.7-1.3-1.6-1.7-2.5c-0.4-1-0.6-2.1-0.6-3.2
		c0-1.2,0.2-2.2,0.6-3.2c0.4-1,1-1.8,1.7-2.5c0.7-0.7,1.6-1.3,2.6-1.7c1-0.4,2-0.6,3.2-0.6c1.1,0,2.2,0.2,3.2,0.6
		c1,0.4,1.8,1,2.6,1.7c0.7,0.7,1.3,1.6,1.7,2.5c0.4,1,0.6,2.1,0.6,3.2c0,1.2-0.2,2.2-0.6,3.2c-0.4,1-1,1.8-1.7,2.5
		c-0.7,0.7-1.6,1.3-2.6,1.7C439.8,15.9,438.7,16.1,437.6,16.1z M437.6,14.3c0.9,0,1.6-0.1,2.4-0.4c0.7-0.3,1.4-0.7,1.9-1.2
		c0.5-0.5,1-1.1,1.3-1.8c0.3-0.7,0.5-1.5,0.5-2.4V7.6c0-0.9-0.2-1.7-0.5-2.4c-0.3-0.7-0.7-1.3-1.3-1.8c-0.5-0.5-1.2-0.9-1.9-1.2
		c-0.7-0.3-1.5-0.4-2.4-0.4c-0.9,0-1.6,0.1-2.4,0.4c-0.7,0.3-1.3,0.7-1.9,1.2c-0.5,0.5-1,1.1-1.3,1.8c-0.3,0.7-0.5,1.5-0.5,2.4v0.9
		c0,0.9,0.2,1.7,0.5,2.4c0.3,0.7,0.7,1.3,1.3,1.8c0.5,0.5,1.2,0.9,1.9,1.2C435.9,14.2,436.7,14.3,437.6,14.3z M436.3,12.1h-1.8V3.9
		h3.8c0.8,0,1.5,0.2,1.9,0.7c0.5,0.5,0.7,1.1,0.7,1.8c0,1.2-0.5,1.9-1.6,2.3l2,3.4h-2L437.5,9h-1.3V12.1z M437.9,7.7
		c0.8,0,1.2-0.4,1.2-1.1V6.4c0-0.7-0.4-1.1-1.2-1.1h-1.6v2.4H437.9z"/>
</g>
</svg>
