<?xml version="1.0" encoding="utf-8"?>
<!-- Generator: Adobe Illustrator 16.0.0, SVG Export Plug-In . SVG Version: 6.00 Build 0)  -->
<!DOCTYPE svg PUBLIC "-//W3C//DTD SVG 1.1//EN" "http://www.w3.org/Graphics/SVG/1.1/DTD/svg11.dtd">
<svg version="1.1" id="Layer_1" xmlns="http://www.w3.org/2000/svg" xmlns:xlink="http://www.w3.org/1999/xlink" x="0px" y="0px"
	 width="260px" height="55.667px" viewBox="0 0 260 55.667" enable-background="new 0 0 260 55.667" xml:space="preserve">
<g>
	<path fill-rule="evenodd" clip-rule="evenodd" fill="#0060A3" d="M56.863,31.114l10.188-2.471c0.188-0.063,0.312,0.061,0.374,0.246
		l0.246,0.68c0.062,0.186,0,0.369-0.123,0.432l-9.573,4.572c-0.124,0.061-0.309-0.063-0.37-0.25l-0.926-2.775
		C56.616,31.362,56.678,31.174,56.863,31.114 M54.271,23.333l10.189-2.471c0.185-0.062,0.308,0.062,0.369,0.246l0.249,0.68
		c0.062,0.249,0,0.372-0.125,0.493l-9.57,4.571c-0.123,0.063-0.308-0.063-0.369-0.246l-0.927-2.781
		C54.024,23.58,54.086,23.395,54.271,23.333z M51.676,15.924l10.252-2.533c0.186,0,0.309,0.062,0.37,0.246l0.247,0.741
		c0.062,0.186,0,0.371-0.124,0.432l-9.573,4.57c-0.12,0.062-0.309-0.062-0.371-0.246l-0.927-2.78
		C51.49,16.17,51.552,15.924,51.676,15.924z M48.96,7.646l11.055-6.544c0.121-0.123,0.369,0.061,0.43,0.246l0.246,0.681
		c0.062,0.185-0.062,0.307-0.246,0.43l-10.312,8.646c-0.185,0.186-0.434,0-0.495-0.185l-0.927-2.778
		C48.653,7.955,48.776,7.77,48.96,7.646z M18.455,18.577c-1.237,0.432-1.915,1.792-1.484,3.026l7.348,22.046
		c0.434,1.236,1.792,1.916,3.026,1.482l22.046-7.35c1.236-0.434,1.915-1.791,1.484-3.025l-7.35-22.045
		c-0.432-1.234-1.79-1.916-3.026-1.482L18.455,18.577z M14.13,15.86l28.222-9.447c1.606-0.492,3.336,0.372,3.89,1.915l9.45,28.283
		c0.494,1.541-0.372,3.334-1.914,3.826l-28.283,9.449c-1.546,0.557-3.338-0.311-3.83-1.914l-9.447-28.22
		C11.661,18.146,12.526,16.417,14.13,15.86z M28.583,25.495l2.714,8.027l7.967-2.719l-2.657-7.965L28.583,25.495z M11.043,24.875
		L0.792,27.409c-0.123,0-0.307-0.125-0.369-0.309l-0.248-0.68c-0.062-0.184,0-0.371,0.125-0.434l9.57-4.568
		c0.123-0.062,0.31,0.061,0.371,0.247l0.924,2.778C11.23,24.629,11.166,24.815,11.043,24.875z M13.637,32.657l-10.25,2.469
		c-0.186,0.063-0.309-0.061-0.371-0.246l-0.249-0.682c-0.062-0.184,0-0.367,0.126-0.43l9.57-4.631
		c0.123-0.064,0.307,0.061,0.37,0.309l0.925,2.775C13.821,32.411,13.76,32.596,13.637,32.657z M16.168,40.127l-10.25,2.471
		c-0.123,0.064-0.308-0.063-0.369-0.248l-0.247-0.678c-0.062-0.25,0-0.373,0.186-0.496l9.511-4.566
		c0.121-0.063,0.308,0.061,0.369,0.246l0.927,2.779C16.353,39.881,16.294,40.067,16.168,40.127z M18.885,48.34L7.894,54.889
		c-0.184,0.123-0.432,0-0.493-0.186l-0.249-0.742c-0.059-0.188,0.125-0.311,0.249-0.434l10.313-8.643
		c0.185-0.123,0.432,0,0.494,0.184l0.926,2.779C19.194,48.034,19.07,48.217,18.885,48.34z"/>
	<path fill-rule="evenodd" clip-rule="evenodd" fill="#0060A3" d="M162.461,40.127c0.863,0.559,2.408,0.928,3.89,0.928
		c3.273,0,6.113-1.543,6.484-4.691c0.185-2.166-1.482-3.645-3.643-4.816c-1.854-1.051-2.284-1.67-2.161-2.721
		c0.062-0.988,1.049-1.975,2.716-1.975c1.051,0,1.852,0.309,2.594,0.68l1.05-1.854c-0.804-0.434-1.912-0.803-3.521-0.803
		c-3.023,0-5.619,1.791-5.865,4.322c-0.185,1.791,1.049,3.148,3.521,4.51c1.975,1.049,2.345,1.854,2.222,3.086
		c-0.123,1.42-1.359,2.285-3.148,2.285c-1.237,0-2.471-0.494-3.151-0.805L162.461,40.127"/>
	<path fill-rule="evenodd" clip-rule="evenodd" fill="#0060A3" d="M239.588,40.872h3.214l0.864-8.709
		c0.062-0.557,0.185-1.049,0.308-1.482c0.494-1.791,2.161-3.271,4.2-3.271c0.245,0,0.43,0,0.618,0.061l0.246-2.594
		c-0.185,0-0.369,0-0.619,0c-1.85,0-3.703,1.234-4.507,2.717h-0.123l0.123-2.467h-2.902c-0.062,1.17-0.062,2.713-0.246,4.072
		L239.588,40.872"/>
	<path fill-rule="evenodd" clip-rule="evenodd" fill="#0060A3" d="M204.945,25.125l3.274,15.746h2.716l3.152-7.537
		c0.615-1.543,1.108-2.961,1.665-4.814h0.062c0.185,1.791,0.308,3.148,0.681,4.691l1.541,7.66h2.596l6.667-15.746h-3.21
		l-2.653,7.654c-0.681,1.793-1.177,3.396-1.607,5.064h-0.184c-0.123-1.791-0.435-3.459-0.742-5.188l-1.42-7.531h-2.473l-3.148,7.777
		c-0.554,1.482-1.234,3.273-1.726,4.941h-0.188c-0.062-1.668-0.309-3.334-0.555-5.002l-1.174-7.717H204.945"/>
	<path fill-rule="evenodd" clip-rule="evenodd" fill="#0060A3" d="M198.4,22.468l-0.246,2.657h-2.471l-0.185,1.85h2.471l-0.93,9.139
		c-0.246,2.223,0,3.271,0.745,4.014c0.677,0.682,1.789,0.928,3.084,0.928c1.053,0,1.793-0.123,2.41-0.246v-1.916
		c-0.307,0.063-0.74,0.063-1.298,0.063c-1.174,0-2.038-0.492-1.789-2.592l0.926-9.389h4.444l-0.368-1.85h-3.83l0.37-3.707
		L198.4,22.468"/>
	<path fill-rule="evenodd" clip-rule="evenodd" fill="#0060A3" d="M191.791,40.872l1.424-13.896h3.705l0.185-1.85h-3.645
		l0.062-0.989c0.246-2.04,0.927-3.952,3.211-3.952c0.865,0,1.357,0.123,1.791,0.246l0.68-1.976
		c-0.557-0.185-1.359-0.369-2.471-0.369c-1.233,0-2.839,0.308-4.137,1.357c-1.604,1.234-2.1,3.026-2.284,4.694l-0.062,0.989h-2.534
		l-0.185,1.85h2.534l-1.423,13.896H191.791"/>
	<path fill-rule="evenodd" clip-rule="evenodd" fill="#0060A3" d="M87.187,40.872h5.433V30.866c0-0.492,0.062-0.928,0.185-1.174
		c0.369-0.988,1.234-1.48,2.038-1.48c1.729,0,1.854,1.543,1.854,2.717v9.943h5.433V30.803c0-0.43,0.062-0.926,0.185-1.111
		c0.311-0.926,1.05-1.48,2.038-1.48c1.606,0,1.854,1.48,1.854,3.273v9.387h5.435V30.743c0-3.768-1.607-6.053-5.312-6.053
		c-0.988,0-1.977,0.186-2.78,0.555c-0.801,0.434-1.603,0.992-2.1,1.607h-0.062c-0.739-1.357-2.161-2.162-4.444-2.162
		c-2.1,0-3.769,0.928-4.818,2.1h-0.062l-0.308-1.852h-5.806c0.558,0.307,1.172,0.926,1.172,1.236
		c0.066,1.234,0.066,2.158,0.066,3.58V40.872"/>
	<path fill-rule="evenodd" clip-rule="evenodd" fill="#0060A3" d="M78.354,37.844c-1.915,0-2.471-2.283-2.471-4.941
		c0-2.223,0.369-4.939,2.41-4.939c1.851,0,2.284,2.717,2.284,4.939C80.577,35.188,80.144,37.844,78.354,37.844 M78.293,41.118
		c3.026,0,7.717-1.67,7.717-8.275c0-5.004-2.902-8.152-7.717-8.152c-0.988,0-2.222,0.125-2.657,0.248
		c-0.864,0.307-6.112,0.123-5.682,0.307c0.989,0.25,3.026,1.361,2.78,1.545c-1.359,1.357-2.284,3.396-2.284,6.176
		c0.062,5.125,2.963,8.152,7.781,8.152H78.293z"/>
	<path fill-rule="evenodd" clip-rule="evenodd" fill="#0060A3" d="M118.184,31.424c0.062-1.609,0.742-3.586,2.53-3.586
		c1.607,0,2.288,1.543,2.288,3.586H118.184 M127.816,34.385c0.064-0.432,0.126-1.051,0.126-2.164c0-4.813-2.533-7.531-6.917-7.531
		c-4.572,0-8.09,3.211-8.09,8.521c0,5.002,3.026,7.844,8.582,7.844c2.039,0,4.138-0.307,5.561-0.742l-0.743-3.027
		c-0.988,0.248-2.345,0.496-3.83,0.496c-2.407,0-4.26-0.926-4.322-3.396H127.816z"/>
	<path fill-rule="evenodd" clip-rule="evenodd" fill="#0060A3" d="M139.119,35.002c0,0.432-0.064,0.928-0.249,1.234
		c-0.431,0.865-1.11,1.176-1.789,1.176c-1.605,0-2.655-1.482-2.655-4.447c0-2.592,0.741-4.691,2.717-4.691
		c0.928,0,1.481,0.615,1.728,1.357c0.123,0.307,0.249,0.742,0.249,1.111V35.002 M144.553,30c0-1.914,0.062-3.58,0.185-5.063h-4.753
		l-0.31,1.668h-0.063c-0.803-1.234-2.161-1.916-3.767-1.916c-3.766,0-6.792,3.088-6.792,8.336c0,3.83,1.789,7.723,6.298,7.723
		c1.543,0,2.965-0.559,3.703-1.609h0.064v0.988c0,2.471-1.049,3.893-3.829,3.893c-1.545,0-2.841-0.309-3.829-0.682l-0.987,3.275
		c1.419,0.492,3.149,0.738,5.063,0.738c2.902,0,5.063-0.615,6.608-1.727c1.603-1.236,2.407-3.09,2.407-6.547V30z"/>
	<path fill-rule="evenodd" clip-rule="evenodd" fill="#0060A3" d="M154.804,35.868c0,0.309-0.062,0.555-0.123,0.742
		c-0.373,0.988-1.357,1.357-2.223,1.357s-1.977-0.555-1.977-2.1c0-2.223,2.529-2.719,4.322-2.779V35.868 M160.113,31.297
		c0-3.211-0.988-6.607-7.164-6.607c-2.902,0-5.186,0.742-6.359,1.174l0.989,2.902c1.233-0.555,2.529-0.928,4.137-0.928
		c1.977,0,2.903,0.928,2.903,2.162v0.373c-4.634,0.059-9.324,1.725-9.263,5.926c0,2.779,2.284,4.818,5.31,4.818
		c1.792,0,3.457-0.617,4.507-1.855h0.122l0.312,1.609h4.816c-0.187-1.113-0.248-2.408-0.248-3.646L160.113,31.297z"/>
	<path fill-rule="evenodd" clip-rule="evenodd" fill="#0060A3" d="M179.814,39.139c-2.842,0-3.088-3.578-2.842-6.174
		c0.246-2.408,1.173-6.113,4.076-6.113c2.78,0,3.025,3.705,2.78,6.113c-0.25,2.469-1.237,6.174-3.953,6.174H179.814 M179.504,41.118
		c3.088,0,6.854-2.039,7.535-8.152c0.554-5.496-2.1-8.09-5.683-8.09c-3.457,0-6.979,2.41-7.532,8.15
		C173.206,38.524,175.861,41.118,179.504,41.118z"/>
	<path fill-rule="evenodd" clip-rule="evenodd" fill="#0060A3" d="M234.339,35.868c-0.062,0.309-0.123,0.615-0.246,0.926
		c-0.554,1.543-1.791,2.346-3.21,2.346c-1.111,0-2.347-0.676-2.16-2.775c0.369-3.398,4.26-3.645,5.927-3.645L234.339,35.868
		 M237.983,30.432c0.371-3.518-1.111-5.557-5.187-5.557c-1.976,0-3.828,0.557-4.756,0.988l0.495,1.791
		c1.05-0.494,2.161-0.803,3.396-0.803c2.532,0,3.088,1.422,2.84,3.58l-0.062,0.496c-4.509,0-8.707,1.729-9.138,5.682
		c-0.248,2.775,1.664,4.508,4.321,4.508c1.729,0,3.211-0.744,4.198-1.916h0.123l0.062,1.67h2.842
		c-0.124-1.051,0.062-2.408,0.185-3.586L237.983,30.432z"/>
	<path fill-rule="evenodd" clip-rule="evenodd" fill="#0060A3" d="M250.768,31.362c0.369-2.164,1.666-4.572,3.765-4.572
		c1.546,0,2.903,1.422,2.534,4.572H250.768 M259.843,33.211c0.126-0.369,0.188-0.801,0.249-1.42c0.369-3.58-0.926-6.916-5.001-6.916
		c-4.077,0-7.103,3.148-7.66,8.273c-0.492,4.818,1.73,7.906,6.486,7.906c1.42,0,2.53-0.123,3.642-0.492
		c0.186-0.063,1.05,0.369,2.41,1.541l-1.914-3.641c-0.804,0.369-1.977,0.615-3.337,0.615c-2.284,0-4.63-1.051-4.135-5.867H259.843z"
		/>
	<path fill-rule="evenodd" clip-rule="evenodd" fill="#0060A3" d="M257.324,17.195c1.198,0,2.083,1.021,2.083,2.311
		c0,1.263-0.885,2.285-2.083,2.285c-1.199,0-2.11-1.022-2.11-2.315c0-1.26,0.911-2.281,2.078-2.281H257.324 M257.324,16.593
		c-1.543,0-2.769,1.294-2.769,2.883c0,1.624,1.226,2.917,2.769,2.917c1.538,0,2.765-1.293,2.765-2.917
		C260.089,17.887,258.862,16.593,257.324,16.593z M256.896,18.547c0.057-0.03,0.171-0.03,0.342-0.03c0.399,0,0.6,0.15,0.6,0.42
		c0,0.299-0.286,0.422-0.655,0.422h-0.286V18.547z M256.867,19.837h0.314c0.341,0,0.512,0.151,0.57,0.451
		c0.085,0.361,0.112,0.602,0.199,0.692h0.654c-0.083-0.09-0.143-0.272-0.227-0.692c-0.087-0.389-0.201-0.63-0.486-0.719v-0.032
		c0.315-0.12,0.57-0.361,0.57-0.691c0-0.272-0.111-0.481-0.255-0.602c-0.201-0.149-0.428-0.238-0.943-0.238
		c-0.397,0-0.742,0.059-0.969,0.089v2.884h0.571V19.837z"/>
</g>
</svg>
